<svg viewBox="0 0 60 40" xmlns="http://www.w3.org/2000/svg">
  <rect width="60" height="40" fill="#fff"/>
  <g fill="#B22234">
    <rect y="0" width="60" height="3.08"/>
    <rect y="6.15" width="60" height="3.08"/>
    <rect y="12.3" width="60" height="3.08"/>
    <rect y="18.46" width="60" height="3.08"/>
    <rect y="24.6" width="60" height="3.08"/>
    <rect y="30.77" width="60" height="3.08"/>
    <rect y="36.9" width="60" height="3.08"/>
  </g>
  <rect width="24" height="21.5" fill="#3C3B6E"/>
  <g fill="#fff">
    <circle cx="4" cy="3" r="1"/><circle cx="9" cy="3" r="1"/><circle cx="14" cy="3" r="1"/><circle cx="19" cy="3" r="1"/>
    <circle cx="6.5" cy="6.5" r="1"/><circle cx="11.5" cy="6.5" r="1"/><circle cx="16.5" cy="6.5" r="1"/>
    <circle cx="4" cy="10" r="1"/><circle cx="9" cy="10" r="1"/><circle cx="14" cy="10" r="1"/><circle cx="19" cy="10" r="1"/>
    <circle cx="6.5" cy="13.5" r="1"/><circle cx="11.5" cy="13.5" r="1"/><circle cx="16.5" cy="13.5" r="1"/>
    <circle cx="4" cy="17" r="1"/><circle cx="9" cy="17" r="1"/><circle cx="14" cy="17" r="1"/><circle cx="19" cy="17" r="1"/>
  </g>
</svg>
